<svg version="1.1" id="Layer_1" xmlns="http://www.w3.org/2000/svg" xmlns:xlink="http://www.w3.org/1999/xlink" x="0px" y="0px"
	 width="100%" viewBox="0 0 800 200" enable-background="new 0 0 800 200" xml:space="preserve">
<path fill="none" opacity="1.000000" stroke="#000000" stroke-linecap="round" stroke-linejoin="round" stroke-width="2.000000"
	d="
M676.500000,129.500000 
	C676.500000,119.333336 676.591370,109.164986 676.404419,99.001755 
	C676.375366,97.422073 678.358887,94.404266 674.009521,94.243179 
	C672.902527,94.202179 673.786438,90.822449 673.398254,88.750000 
	C667.008545,88.750000 660.504272,88.750000 653.736694,88.750000 
	C652.543091,90.510391 655.340027,94.787369 650.513062,95.166451 
	C650.408997,95.174629 650.500000,97.666664 650.500000,99.000000 
	C650.500000,123.166664 650.692993,147.335770 650.387451,171.498581 
	C650.290466,179.160202 650.116821,186.832245 650.000000,194.500000 
"/>
<path fill="none" opacity="1.000000" stroke="#000000" stroke-linecap="round" stroke-linejoin="round" stroke-width="2.000000"
	d="
M470.000000,53.000000 
	C468.174438,51.620079 465.958313,52.394424 463.980743,52.168602 
	C461.995087,51.941845 460.171570,53.221062 460.468872,56.003326 
	C460.981689,60.802578 459.316986,65.542458 457.189056,69.325073 
	C455.227966,72.811104 455.272095,76.784988 452.915955,80.280380 
	C451.261597,82.734573 451.543213,87.656868 451.530823,91.500099 
	C451.465179,111.833221 451.377136,132.167664 451.542084,152.499664 
	C451.657013,166.668106 452.166656,180.833328 452.500000,195.000000 
"/>
<path fill="none" opacity="1.000000" stroke="#000000" stroke-linecap="round" stroke-linejoin="round" stroke-width="3.000000"
	d="
M580.500000,53.500000 
	C575.226318,54.869129 573.903442,58.434525 574.399475,63.509827 
	C574.665771,66.234840 575.802063,69.690590 571.523071,71.071465 
	C569.740234,71.646805 570.546814,73.631516 570.527649,75.000389 
	C570.457642,79.999405 570.508911,85.000023 570.496277,89.999992 
	C570.489990,92.476486 571.016296,95.063004 568.024841,96.549934 
	C566.169189,97.472298 567.037903,99.483788 567.034058,101.000084 
	C566.983093,121.166618 567.000000,141.333328 567.000000,161.500000 
"/>
<path fill="none" opacity="1.000000" stroke="#000000" stroke-linecap="round" stroke-linejoin="round" stroke-width="2.000000"
	d="
M188.500000,74.500008 
	C186.868881,72.635201 185.237762,70.770393 183.600952,68.899071 
	C181.833344,70.666679 180.262665,72.445755 178.475616,73.971436 
	C176.262741,75.860649 174.929764,77.937874 175.433609,81.010887 
	C175.559280,81.777290 176.288315,83.563652 174.505188,83.430519 
	C171.608185,83.214195 172.571503,85.177231 172.525208,86.500885 
	C172.437897,88.997826 172.541336,91.501068 172.476822,93.999405 
	C172.455200,94.836212 173.008698,95.989113 171.985748,96.469681 
	C168.161392,98.266304 169.556625,101.678978 169.545593,104.500175 
	C169.462128,125.833191 169.482056,147.166718 169.535004,168.499908 
	C169.539124,170.156906 168.941299,171.922531 170.000000,173.500000 
"/>
<path fill="none" opacity="1.000000" stroke="#000000" stroke-linecap="round" stroke-linejoin="round" stroke-width="2.000000"
	d="
M626.500000,69.500000 
	C624.333313,71.500000 622.255615,73.610023 619.967285,75.459496 
	C618.553223,76.602386 618.574707,77.950607 618.447144,79.495636 
	C618.311523,81.137650 619.815247,83.741966 615.997314,83.687714 
	C614.956909,83.672928 615.810364,86.189613 615.491943,87.498039 
	C614.630859,91.036728 617.855164,95.664818 612.568542,98.146027 
	C612.055725,98.386711 612.500000,100.666664 612.500000,102.000000 
	C612.500000,123.000000 612.500000,144.000000 612.500000,165.000000 
	C612.500000,172.166672 612.500000,179.333328 612.500000,186.500000 
"/>
<path fill="none" opacity="1.000000" stroke="#000000" stroke-linecap="round" stroke-linejoin="round" stroke-width="2.000000"
	d="
M518.500000,127.000000 
	C518.500000,119.000000 518.716492,110.991173 518.390930,103.004448 
	C518.264771,99.908501 520.731506,95.706337 515.572815,93.802711 
	C515.031494,93.602966 515.500000,90.666664 515.500000,88.750000 
	C508.833344,88.750000 502.166656,88.750000 494.965668,88.750000 
	C494.981049,91.515442 495.616638,94.451927 492.041840,95.627289 
	C490.724487,96.060425 491.544525,98.177864 491.535706,99.500237 
	C491.469940,109.333138 491.500000,119.166664 491.500000,129.000000 
"/>
<path fill="none" opacity="1.000000" stroke="#000000" stroke-linecap="round" stroke-linejoin="round" stroke-width="2.000000"
	d="
M114.500000,99.500000 
	C116.434441,131.324081 115.082916,163.165359 115.538513,195.000000 
	C91.495270,195.000000 67.994087,195.000000 44.453659,195.000000 
	C44.726963,191.835358 43.291073,188.347595 47.509838,187.552185 
	C49.530544,187.171188 50.756451,188.243546 50.500000,190.500000 
"/>
<path fill="none" opacity="1.000000" stroke="#000000" stroke-linecap="round" stroke-linejoin="round" stroke-width="2.000000"
	d="
M477.500000,42.500000 
	C477.745056,43.486935 477.459808,44.436813 477.916321,45.534794 
	C480.429443,51.579540 482.231354,57.787281 481.558319,64.505844 
	C481.331482,66.770279 480.515198,69.453194 484.468628,70.172424 
	C486.238342,70.494377 486.011322,73.171555 486.005341,75.000015 
	C485.989532,79.833305 485.990967,84.666687 486.003754,89.499992 
	C486.010284,91.976486 485.433929,94.658997 488.489868,96.022728 
	C489.491913,96.469894 489.549805,97.469131 489.515808,98.500519 
	C489.186523,108.497375 490.120422,118.515892 489.000000,128.500000 
"/>
<path fill="none" opacity="1.000000" stroke="#000000" stroke-linecap="round" stroke-linejoin="round" stroke-width="3.000000"
	d="
M147.000000,76.500000 
	C147.000000,78.666664 147.000000,80.833336 147.000000,83.212204 
	C148.316467,83.338539 149.653122,83.466820 151.535095,83.647438 
	C150.608322,87.204552 152.471939,88.858849 156.000000,88.973045 
	C156.000000,117.666664 155.989227,146.333344 156.021576,174.999969 
	C156.024033,177.166840 156.333344,179.333328 156.500000,181.500000 
"/>
<path fill="none" opacity="1.000000" stroke="#000000" stroke-linecap="round" stroke-linejoin="round" stroke-width="2.000000"
	d="
M537.500000,53.500000 
	C536.186584,60.084450 537.062622,66.556618 539.062378,73.329788 
	C541.220276,73.097084 543.367249,74.532021 545.337219,75.882843 
	C543.679321,80.730759 544.272400,85.744141 544.880554,90.450836 
	C545.048645,91.752068 547.893372,95.480728 551.403809,94.733902 
	C549.563293,105.616562 550.913269,116.335831 550.500000,127.000000 
"/>
<path fill="none" opacity="1.000000" stroke="#000000" stroke-linecap="round" stroke-linejoin="round" stroke-width="3.000000"
	d="
M633.500000,76.500000 
	C633.942627,79.752495 633.341675,83.088966 637.311707,85.333069 
	C638.525513,86.019157 637.478516,90.666885 637.507812,93.499916 
	C637.526123,95.269783 636.944946,97.144478 639.461548,98.101219 
	C640.677185,98.563377 639.965332,100.343689 639.968628,101.500092 
	C640.014832,117.833298 640.000000,134.166672 640.000000,150.500000 
	C640.000000,158.000000 640.000000,165.500000 640.000000,173.000000 
"/>
<path fill="none" opacity="1.000000" stroke="#000000" stroke-linecap="round" stroke-linejoin="round" stroke-width="2.000000"
	d="
M730.000000,179.500000 
	C728.869324,170.851868 729.709900,162.165985 729.530334,153.499374 
	C729.381897,146.335770 729.500000,139.166672 729.500000,131.750000 
	C727.357727,131.750000 725.179016,131.750000 723.191833,131.750000 
	C721.956787,130.458557 722.778931,129.150635 722.469238,127.995834 
	C715.373657,127.036049 715.373657,127.036049 714.389771,131.500000 
	C712.503479,131.500000 710.496521,131.500000 708.000000,131.500000 
	C708.000000,134.141861 708.000000,136.320923 708.000000,138.500000 
"/>
<path fill="none" opacity="1.000000" stroke="#000000" stroke-linecap="round" stroke-linejoin="round" stroke-width="2.000000"
	d="
M359.000000,96.500000 
	C360.895874,97.534714 360.494812,99.345566 360.495270,101.000000 
	C360.502197,125.000000 360.449097,149.000397 360.633362,172.998978 
	C360.643829,174.360809 359.538818,174.186066 359.563965,175.602066 
	C356.999390,170.948807 360.192108,166.021729 357.500000,162.000000 
"/>
<path fill="none" opacity="1.000000" stroke="#000000" stroke-linecap="round" stroke-linejoin="round" stroke-width="2.000000"
	d="
M73.000000,177.000000 
	C71.917381,170.858093 72.666183,164.666153 72.529900,158.499344 
	C72.393692,152.335678 72.500000,146.166672 72.500000,139.500000 
	C63.172947,139.500000 53.833847,139.500000 44.000000,139.500000 
	C44.000000,150.654755 44.000000,162.323807 44.000000,173.996429 
	C44.333332,174.000000 44.674942,173.952057 44.998631,174.007935 
	C46.834793,174.324890 49.943192,174.203598 50.263237,175.085876 
	C51.266773,177.852325 52.470867,180.938232 50.555939,184.034592 
	C49.913670,185.073120 48.689835,185.986115 49.000000,187.500000 
"/>
<path fill="none" opacity="1.000000" stroke="#000000" stroke-linecap="round" stroke-linejoin="round" stroke-width="2.000000"
	d="
M583.500000,51.499989 
	C584.164612,51.162659 584.829224,50.825325 586.500000,49.977329 
	C586.500000,55.455555 586.433289,60.479107 586.533264,65.499336 
	C586.572388,67.465347 585.517151,69.938484 588.980103,70.603531 
	C590.685425,70.931030 590.530212,72.933853 590.516418,74.500145 
	C590.472290,79.499756 590.512451,84.500046 590.494934,89.499985 
	C590.485657,92.144577 590.088135,94.862404 592.984314,96.527237 
	C594.238464,97.248169 594.603516,98.459084 594.540955,100.001663 
	C594.196533,108.496376 595.059631,117.017509 594.000000,125.500000 
"/>
<path fill="none" opacity="1.000000" stroke="#000000" stroke-linecap="round" stroke-linejoin="round" stroke-width="2.000000"
	d="
M537.000000,68.500000 
	C537.325195,72.826332 533.268494,73.739838 530.841125,75.243477 
	C529.216492,76.249817 529.480896,76.927330 529.523071,77.999092 
	C529.614868,80.335365 529.945312,82.665062 529.978760,85.000305 
	C530.074402,91.679016 528.872314,93.423965 523.250000,95.411621 
	C523.250000,107.328690 523.250000,119.164322 523.250000,131.250000 
	C525.642273,131.250000 527.820984,131.250000 530.500000,131.250000 
	C530.500000,152.664047 530.500000,173.832016 530.500000,195.000000 
"/>
<path fill="none" opacity="1.000000" stroke="#000000" stroke-linecap="round" stroke-linejoin="round" stroke-width="2.000000"
	d="
M85.500000,172.000000 
	C85.500000,160.000000 85.261620,147.992294 85.649033,136.004822 
	C85.761467,132.525726 83.295403,130.727478 82.244377,128.102341 
	C81.690086,126.717888 77.402985,126.659386 76.701340,128.098190 
	C74.402100,132.813019 70.494812,131.216095 67.000534,131.506439 
	C65.992111,131.590225 64.990135,131.751434 64.033905,131.871063 
	C63.425377,134.166672 62.998695,136.333328 64.000000,138.500000 
"/>
<path fill="none" opacity="1.000000" stroke="#000000" stroke-linecap="round" stroke-linejoin="round" stroke-width="2.000000"
	d="
M242.500000,74.500000 
	C246.649734,76.007965 247.284393,79.170082 246.207718,83.055473 
	C248.083572,84.059212 251.562332,82.318886 251.085205,86.509705 
	C250.728394,89.643646 253.541122,88.084427 255.500000,88.703850 
	C255.500000,117.331406 255.500000,146.165710 255.500000,175.000000 
"/>
<path fill="none" opacity="1.000000" stroke="#000000" stroke-linecap="round" stroke-linejoin="round" stroke-width="2.000000"
	d="
M317.000000,162.500000 
	C317.000000,155.666672 317.000000,148.833328 317.000000,142.000000 
	C317.000000,126.000000 317.104401,109.998428 316.863983,94.002045 
	C316.834900,92.068275 317.548065,89.259834 314.536957,87.917137 
	C312.686493,87.091988 312.393524,84.973808 312.501007,83.000053 
	C312.687744,79.571304 310.843658,76.516258 308.395966,75.192375 
	C303.919098,72.771004 302.989624,69.423805 303.497375,64.999695 
	C303.597412,64.127739 303.320679,63.422997 302.438019,62.838108 
	C300.350739,65.542290 302.825928,69.126472 300.907623,71.422821 
	C298.814026,73.928993 295.805756,75.656624 293.595032,78.086472 
	C292.703979,79.065865 292.455902,80.846054 292.419678,82.498238 
	C292.362457,85.106346 291.791107,87.708031 289.000000,89.000000 
"/>
<path fill="none" opacity="1.000000" stroke="#000000" stroke-linecap="round" stroke-linejoin="round" stroke-width="2.000000"
	d="
M486.000000,127.000000 
	C483.348053,125.723564 482.065796,126.837410 482.025940,129.500381 
	C481.941071,135.165787 482.000000,140.833328 482.000000,146.500000 
	C482.000000,154.833328 481.783569,163.174881 482.099091,171.496246 
	C482.238953,175.185181 481.544800,178.899155 482.108795,182.482880 
	C482.772552,186.700821 482.957306,190.014236 477.506592,190.565155 
	C476.879578,190.628540 476.223083,191.528198 476.714569,193.102295 
	C480.815033,195.628021 485.796387,194.091904 490.500000,194.500000 
"/>
<path fill="none" opacity="1.000000" stroke="#000000" stroke-linecap="round" stroke-linejoin="round" stroke-width="2.000000"
	d="
M442.500000,41.500000 
	C442.352203,45.088997 440.628296,48.203495 439.510986,51.503723 
	C438.139191,55.555702 437.878235,59.749908 437.977173,64.000534 
	C438.037628,66.596733 438.820679,69.467400 435.022949,70.578430 
	C432.997711,71.170929 433.510162,73.345490 433.505035,75.000015 
	C433.490570,79.666634 433.273743,84.347908 433.573090,88.995293 
	C433.803864,92.578575 433.033661,95.435432 430.000000,97.500000 
"/>
<path fill="none" opacity="1.000000" stroke="#000000" stroke-linecap="round" stroke-linejoin="round" stroke-width="2.000000"
	d="
M333.000000,181.500000 
	C327.780914,179.338608 322.327576,180.951721 316.996582,180.544571 
	C313.813416,180.301483 310.596527,180.500000 307.394775,180.500000 
	C307.422485,181.208832 307.450195,181.917648 307.477905,182.626480 
	C315.990143,182.169495 324.475250,183.095123 333.000000,182.000000 
"/>
<path fill="none" opacity="1.000000" stroke="#000000" stroke-linecap="round" stroke-linejoin="round" stroke-width="2.000000"
	d="
M317.500000,95.000000 
	C317.833344,95.166672 318.149628,95.403221 318.502625,95.489174 
	C321.998291,96.340393 325.885071,96.482185 328.899780,98.178169 
	C332.442719,100.171333 329.644440,104.402756 330.517609,107.495026 
	C335.485504,125.087570 333.540771,143.120392 334.000000,161.000000 
"/>
<path fill="none" opacity="1.000000" stroke="#000000" stroke-linecap="round" stroke-linejoin="round" stroke-width="2.000000"
	d="
M587.500000,123.500000 
	C587.211487,125.121880 588.520325,125.226318 589.505249,125.479576 
	C592.323669,126.204292 595.186340,126.760345 597.995483,127.516777 
	C602.421143,128.708481 605.494141,132.843765 605.496643,137.500000 
	C605.505371,153.833328 605.476685,170.166748 605.535339,186.499878 
	C605.541321,188.157150 604.941284,189.922531 606.000000,191.500000 
"/>
<path fill="none" opacity="1.000000" stroke="#000000" stroke-linecap="round" stroke-linejoin="round" stroke-width="2.000000"
	d="
M667.000000,126.500000 
	C665.866394,133.978516 666.564941,141.503189 666.564148,149.000000 
	C666.563293,157.831314 666.654968,166.679443 666.708740,175.501770 
	C666.738403,180.372635 664.698059,185.439606 664.000000,190.500000 
"/>
<path fill="none" opacity="1.000000" stroke="#000000" stroke-linecap="round" stroke-linejoin="round" stroke-width="2.000000"
	d="
M224.500000,76.500000 
	C222.336838,79.118057 223.821915,82.170303 223.557587,85.005371 
	C223.294785,87.823975 223.500000,90.686218 223.500000,94.000000 
	C218.846634,94.000000 214.653366,94.000000 210.333786,94.000000 
	C208.735107,100.420471 209.908096,106.504150 209.389404,112.743820 
	C204.177673,112.991844 198.838837,113.245926 193.500000,113.500000 
"/>
<path fill="none" opacity="1.000000" stroke="#000000" stroke-linecap="round" stroke-linejoin="round" stroke-width="3.000000"
	d="
M288.000000,89.500000 
	C288.000000,114.500000 288.000000,139.500000 288.000000,164.500000 
	C288.000000,171.363281 288.006927,171.300110 281.490723,170.584518 
	C280.725739,170.500504 279.833344,169.178741 278.554749,171.212357 
	C279.389496,174.755432 278.703857,179.225891 281.513031,182.655563 
	C281.587372,185.754028 278.339539,185.172867 277.500000,187.000000 
"/>
<path fill="none" opacity="1.000000" stroke="#000000" stroke-linecap="round" stroke-linejoin="round" stroke-width="2.000000"
	d="
M157.000000,94.500000 
	C158.724716,94.456886 160.548035,94.906807 162.500000,93.480774 
	C162.500000,97.820511 162.486099,102.160324 162.507126,106.499962 
	C162.515076,108.140923 162.005783,110.045937 164.497772,110.511909 
	C166.527557,110.891449 165.444290,112.524490 165.447678,113.500183 
	C165.517319,133.499939 165.986923,153.518204 165.240402,173.490295 
	C164.972961,180.645233 164.764526,187.830139 164.500000,195.000000 
"/>
<path fill="none" opacity="1.000000" stroke="#000000" stroke-linecap="round" stroke-linejoin="round" stroke-width="3.000000"
	d="
M571.500000,158.500000 
	C573.811035,159.101608 571.616516,160.990524 573.590942,162.500000 
	C569.685181,162.500000 566.842102,162.468323 564.000183,162.513214 
	C562.553711,162.536072 561.809204,161.874344 561.490234,160.502274 
	C560.587708,156.620789 557.643433,158.729019 555.499756,158.502472 
	C552.198303,158.153595 554.078857,160.783173 552.959595,162.500000 
	C551.503479,162.500000 549.496521,162.500000 547.000000,162.500000 
	C547.000000,173.494705 547.000000,183.997360 547.000000,194.500000 
"/>
<path fill="none" opacity="1.000000" stroke="#000000" stroke-linecap="round" stroke-linejoin="round" stroke-width="2.000000"
	d="
M399.500000,75.500000 
	C403.368286,77.146233 400.561218,80.572563 401.912262,83.496101 
	C404.904968,82.928352 407.372223,83.794441 406.413055,87.964111 
	C407.541443,89.043236 408.849365,88.221069 410.183777,88.578949 
	C410.272552,88.977882 410.485016,89.488815 410.485657,90.000015 
	C410.503448,104.666656 410.476624,119.333427 410.535706,133.999863 
	C410.541687,135.489212 409.884430,137.105438 411.000000,138.500000 
"/>
<path fill="none" opacity="1.000000" stroke="#000000" stroke-linecap="round" stroke-linejoin="round" stroke-width="2.000000"
	d="
M190.500000,76.500000 
	C190.856400,77.639565 192.099442,78.513199 191.078079,80.051834 
	C190.617310,80.745972 190.785934,82.816422 191.031265,82.880745 
	C197.366898,84.541962 193.376144,89.651344 194.526657,92.990814 
	C195.084869,94.611092 192.621002,97.791115 197.004791,97.631416 
	C198.016144,97.594566 197.446335,99.509186 197.466446,100.500679 
	C197.547485,104.499039 197.500000,108.500000 197.500000,112.500000 
"/>
<path fill="none" opacity="1.000000" stroke="#000000" stroke-linecap="round" stroke-linejoin="round" stroke-width="2.000000"
	d="
M503.500000,195.000000 
	C513.984924,196.115402 524.500916,195.395386 535.000244,195.459641 
	C556.832764,195.593216 578.666748,195.517548 600.499939,195.465027 
	C602.156860,195.461044 603.922546,196.058701 605.500000,195.000000 
"/>
<path fill="none" opacity="1.000000" stroke="#000000" stroke-linecap="round" stroke-linejoin="round" stroke-width="2.000000"
	d="
M502.500000,134.000000 
	C503.437592,134.591629 503.522614,135.472153 503.519806,136.500061 
	C503.488403,147.999969 503.508331,159.500015 503.478638,170.999939 
	C503.476929,171.667038 503.166656,172.333328 503.000000,173.000000 
"/>
<path fill="none" opacity="1.000000" stroke="#000000" stroke-linecap="round" stroke-linejoin="round" stroke-width="2.000000"
	d="
M113.500000,99.000000 
	C108.206841,95.447922 101.716057,95.706474 95.500000,92.742401 
	C95.500000,97.318848 95.705864,101.175781 95.402596,104.992264 
	C95.274376,106.605804 97.349815,109.524345 93.012794,109.748077 
	C91.563332,109.822838 92.133583,113.358604 92.171249,114.996063 
	C92.577782,132.669052 92.901833,150.332581 92.030441,168.001495 
	C91.965248,169.323395 92.333336,170.666672 92.500000,172.000000 
"/>
<path fill="none" opacity="1.000000" stroke="#000000" stroke-linecap="round" stroke-linejoin="round" stroke-width="2.000000"
	d="
M419.500000,185.000000 
	C419.383881,186.521866 420.313721,187.346405 421.523529,188.497543 
	C424.608582,184.566391 425.213531,180.808731 425.299805,176.005386 
	C425.497375,165.003204 425.198547,153.998093 425.486572,142.999649 
	C425.529480,141.362228 426.047455,139.392929 423.500000,139.000000 
"/>
<path fill="none" opacity="1.000000" stroke="#000000" stroke-linecap="round" stroke-linejoin="round" stroke-width="2.000000"
	d="
M399.500000,139.000000 
	C397.886017,139.640396 396.353455,139.683411 396.362122,142.500427 
	C396.394897,153.163803 397.066711,163.842514 396.084045,174.507736 
	C395.966461,175.784164 396.950806,177.187668 397.509430,178.495972 
	C399.044037,182.089966 399.271179,185.600220 397.000000,189.000000 
"/>
<path fill="none" opacity="1.000000" stroke="#000000" stroke-linecap="round" stroke-linejoin="round" stroke-width="2.000000"
	d="
M352.000000,48.500000 
	C352.201385,49.866322 351.313782,51.576580 353.023651,52.453876 
	C353.595245,52.747124 354.784393,52.399303 354.461334,53.488529 
	C352.901367,58.747612 357.123291,62.639271 357.704407,67.475441 
	C358.164764,71.306641 361.710052,74.590134 360.500000,79.000000 
	C365.283051,79.107338 363.925507,83.618286 365.424805,86.046440 
	C366.187256,87.281250 366.165649,89.000206 366.475372,90.396011 
	C360.320160,98.199554 351.652954,96.364090 343.500000,96.500000 
"/>
<path fill="none" opacity="1.000000" stroke="#000000" stroke-linecap="round" stroke-linejoin="round" stroke-width="2.000000"
	d="
M348.000000,52.000000 
	C347.280060,52.808407 345.096069,51.834988 345.506531,53.998760 
	C346.563660,59.571064 342.956390,64.199059 342.340363,69.481384 
	C342.033173,72.115601 339.634155,74.449188 340.494415,77.501579 
	C340.537933,77.655975 340.563568,77.942154 340.490997,77.984573 
	C332.927582,82.403976 336.021454,90.746353 333.426544,96.969376 
	C331.633698,101.268875 333.455139,105.776878 332.000000,110.000000 
"/>
<path fill="none" opacity="1.000000" stroke="#000000" stroke-linecap="round" stroke-linejoin="round" stroke-width="2.000000"
	d="
M292.500000,195.000000 
	C287.306976,195.650818 282.137756,196.199722 276.990784,194.528397 
	C274.242798,193.636047 271.882202,195.757675 268.994324,195.643417 
	C253.341217,195.024017 237.649277,195.122147 222.001602,195.230743 
	C196.501312,195.407700 170.999252,195.429947 145.500076,195.407089 
	C135.506409,195.398132 125.482964,196.188797 115.500000,195.000000 
"/>
<path fill="none" opacity="1.000000" stroke="#000000" stroke-linecap="round" stroke-linejoin="round" stroke-width="2.000000"
	d="
M533.500000,140.000000 
	C536.852905,138.070572 535.212708,135.142532 535.002197,132.528076 
	C537.340576,130.971115 539.978821,131.692947 542.498657,131.484070 
	C544.467224,131.320908 546.634521,132.358749 547.666931,129.052124 
	C548.548279,126.229660 551.810120,127.899300 554.146179,127.414017 
	C560.043762,136.995621 557.026611,147.397339 557.000000,157.500000 
"/>
<path fill="none" opacity="1.000000" stroke="#000000" stroke-linecap="round" stroke-linejoin="round" stroke-width="2.000000"
	d="
M435.000000,126.500000 
	C433.334412,124.000000 435.756744,121.450851 434.963318,119.011932 
	C433.871613,115.655983 437.170593,110.973389 431.612701,108.721802 
	C430.800690,108.392845 431.434418,104.330994 431.517700,102.000633 
	C431.608521,99.459251 431.423584,97.836121 428.023529,97.339119 
	C423.263672,96.643364 418.666656,94.833336 413.500000,93.357140 
	C413.500000,97.987656 413.530914,102.494171 413.481232,106.999794 
	C413.466248,108.354599 414.118164,110.301003 411.500000,110.000000 
"/>
<path fill="none" opacity="1.000000" stroke="#000000" stroke-linecap="round" stroke-linejoin="round" stroke-width="2.000000"
	d="
M472.500000,47.500000 
	C473.057129,50.326347 470.449158,52.255577 470.459686,55.000153 
	C470.482422,60.938278 472.308807,66.311295 474.974518,71.513054 
	C476.185730,73.876518 475.170868,76.510834 475.564362,79.011505 
	C479.371735,79.692062 479.371735,79.692062 479.500000,83.500000 
"/>
<path fill="none" opacity="1.000000" stroke="#000000" stroke-linecap="round" stroke-linejoin="round" stroke-width="2.000000"
	d="
M43.500000,195.000000 
	C33.015789,196.161499 22.498205,195.201630 11.999598,195.485077 
	C8.502147,195.579514 5.000000,195.500000 1.500000,195.500000 
"/>
<path fill="none" opacity="1.000000" stroke="#000000" stroke-linecap="round" stroke-linejoin="round" stroke-width="2.000000"
	d="
M669.500000,195.000000 
	C671.077454,196.058701 672.843262,195.462173 674.500061,195.465271 
	C700.833313,195.514603 727.166687,195.500000 753.500000,195.500000 
	C769.166687,195.500000 784.833313,195.500000 800.500000,195.500000 
"/>
<path fill="none" opacity="1.000000" stroke="#000000" stroke-linecap="round" stroke-linejoin="round" stroke-width="2.000000"
	d="
M127.500000,74.500000 
	C125.254799,75.419548 124.175415,77.053635 124.504837,79.499352 
	C124.988129,83.087578 123.146156,84.018585 119.947151,83.410347 
	C118.990906,84.906395 119.759315,86.510292 119.445534,88.099342 
	C118.458557,89.043236 117.150627,88.221069 115.750168,88.596664 
	C114.838936,91.750557 116.297363,95.263069 115.000000,98.500000 
"/>
<path fill="none" opacity="1.000000" stroke="#000000" stroke-linecap="round" stroke-linejoin="round" stroke-width="2.000000"
	d="
M358.500000,195.000000 
	C349.012543,195.881531 339.498840,195.486877 330.000244,195.444138 
	C322.502228,195.410416 314.978516,196.133575 307.500000,195.000000 
"/>
<path fill="none" opacity="1.000000" stroke="#000000" stroke-linecap="round" stroke-linejoin="round" stroke-width="2.000000"
	d="
M302.000000,187.500000 
	C303.550934,189.934250 305.328857,190.553528 308.522247,190.202271 
	C314.779877,189.513977 321.166656,190.000000 327.500000,190.000000 
	C329.183319,190.000000 330.866669,190.000000 332.355804,190.000000 
	C332.853516,187.813156 332.117401,187.442917 330.499542,187.461639 
	C323.000549,187.548416 315.500000,187.500000 307.979034,187.500000 
	C306.734344,189.344620 308.412720,191.679901 307.000000,193.500000 
"/>
<path fill="none" opacity="1.000000" stroke="#000000" stroke-linecap="round" stroke-linejoin="round" stroke-width="2.000000"
	d="
M353.500000,88.500000 
	C349.831543,88.813705 346.046753,87.847473 342.500000,90.000000 
	C347.666656,90.000000 352.833344,90.000000 357.928650,90.000000 
	C358.296661,87.420822 355.182098,89.605690 355.500000,87.500000 
"/>
<path fill="none" opacity="1.000000" stroke="#000000" stroke-linecap="round" stroke-linejoin="round" stroke-width="3.000000"
	d="
M332.500000,175.500000 
	C330.822632,173.394531 328.738129,172.731644 325.994690,172.924103 
	C321.848419,173.214951 317.658936,172.850494 313.503326,173.064728 
	C311.504456,173.167786 308.603973,171.466095 308.243469,175.979507 
	C308.072968,178.114563 304.858704,176.612457 302.770905,176.467453 
	C300.960876,179.602463 302.815704,183.289017 301.753937,186.241058 
	C299.571350,188.466415 295.606964,184.744766 294.524750,189.006287 
	C294.495117,189.123077 294.811371,189.370636 295.007996,189.486404 
	C295.131744,189.559280 295.333344,189.500000 295.500000,189.500000 
"/>
<path fill="none" opacity="1.000000" stroke="#000000" stroke-linecap="round" stroke-linejoin="round" stroke-width="2.000000"
	d="
M373.500000,53.500000 
	C374.876282,58.599380 373.241852,63.876945 374.446411,69.012573 
	C374.843140,70.703964 373.945892,73.365440 376.499146,73.350822 
	C379.003082,73.336479 381.478912,78.009155 384.031555,73.517937 
	C384.296844,73.051201 385.000000,72.833344 385.500000,72.500008 
"/>
<path fill="none" opacity="1.000000" stroke="#000000" stroke-linecap="round" stroke-linejoin="round" stroke-width="2.000000"
	d="
M215.500000,168.500000 
	C211.212784,163.438614 205.289993,164.846710 200.036438,165.367584 
	C198.675766,165.502502 195.328308,168.574478 195.488266,172.000549 
	C195.558151,173.497284 195.500000,175.000000 195.500000,176.500000 
"/>
<path fill="none" opacity="1.000000" stroke="#000000" stroke-linecap="round" stroke-linejoin="round" stroke-width="2.000000"
	d="
M420.500000,195.000000 
	C426.808594,196.107010 433.172607,195.493851 439.499481,195.439209 
	C452.499329,195.326920 465.512360,196.130722 478.500000,195.000000 
"/>
<path fill="none" opacity="1.000000" stroke="#000000" stroke-linecap="round" stroke-linejoin="round" stroke-width="2.000000"
	d="
M78.500000,173.500000 
	C84.620110,172.305420 90.813324,172.438232 96.999870,172.510956 
	C99.204117,172.536850 103.044319,171.785675 103.212547,173.527756 
	C103.701920,178.595062 107.761353,175.385300 110.000000,177.464844 
	C110.000000,182.823822 110.000000,188.661911 110.000000,194.500000 
"/>
<path fill="none" opacity="1.000000" stroke="#000000" stroke-linecap="round" stroke-linejoin="round" stroke-width="2.000000"
	d="
M479.500000,94.500000 
	C478.763519,107.000000 479.586670,119.517540 479.284485,131.994781 
	C479.013824,143.169403 479.852081,154.326584 479.141266,165.508972 
	C478.763092,171.458313 479.116547,177.504944 479.211853,183.496628 
	C479.236633,185.052261 478.370117,186.129593 478.500000,187.500000 
"/>
<path fill="none" opacity="1.000000" stroke="#000000" stroke-linecap="round" stroke-linejoin="round" stroke-width="2.000000"
	d="
M525.500000,179.500000 
	C525.333313,179.166672 525.086914,178.850342 525.011719,178.497513 
	C523.324463,170.580963 521.184448,172.334946 515.505493,173.500687 
	C515.420715,176.198425 515.921387,178.983734 514.491211,181.494980 
	C512.973877,184.159195 515.474487,185.297165 516.500000,187.000000 
"/>
<path fill="none" opacity="1.000000" stroke="#000000" stroke-linecap="round" stroke-linejoin="round" stroke-width="2.000000"
	d="
M154.000000,181.000000 
	C152.495377,179.379623 154.054688,177.325562 153.088348,175.454376 
	C151.715454,172.795959 149.293488,172.232056 146.994415,172.140732 
	C145.013992,172.062057 145.083191,174.470749 144.466797,175.986496 
	C142.425537,181.006256 139.904419,185.870102 140.149002,191.740463 
	C140.830612,193.009506 142.271744,192.382248 143.500000,192.500000 
"/>
<path fill="none" opacity="1.000000" stroke="#000000" stroke-linecap="round" stroke-linejoin="round" stroke-width="2.000000"
	d="
M81.000000,185.000000 
	C81.125725,186.004929 81.251442,187.009872 81.344032,187.750000 
	C89.347519,187.750000 97.184395,187.750000 105.021278,187.750000 
	C105.014183,188.166672 105.007095,188.583328 105.000000,189.000000 
	C97.166664,189.000000 89.333336,189.000000 81.214920,189.000000 
	C80.533234,190.433319 81.203964,192.503113 81.000000,194.500000 
"/>
<path fill="none" opacity="1.000000" stroke="#000000" stroke-linecap="round" stroke-linejoin="round" stroke-width="2.000000"
	d="
M329.500000,155.500000 
	C325.934082,156.205704 324.168823,158.296539 324.522736,162.098816 
	C322.172791,163.314590 318.952820,161.281372 316.909393,164.153824 
	C318.413879,166.666672 316.678711,169.333328 317.000000,172.000000 
"/>
<path fill="none" opacity="1.000000" stroke="#000000" stroke-linecap="round" stroke-linejoin="round" stroke-width="2.000000"
	d="
M385.500000,195.000000 
	C377.833344,195.821732 370.166656,195.821732 362.500000,195.000000 
"/>
<path fill="none" opacity="1.000000" stroke="#000000" stroke-linecap="round" stroke-linejoin="round" stroke-width="2.000000"
	d="
M299.500000,186.500000 
	C299.500000,183.833328 299.562469,181.164902 299.487152,178.500366 
	C299.323486,172.707535 296.482452,170.790878 288.500000,171.000000 
"/>
<path fill="none" opacity="1.000000" stroke="#000000" stroke-linecap="round" stroke-linejoin="round" stroke-width="2.000000"
	d="
M448.500000,51.500000 
	C448.870728,54.662731 449.890991,57.740208 449.518188,61.002079 
	C448.967834,65.817436 449.294250,70.269547 455.000000,72.000000 
"/>
<path fill="none" opacity="1.000000" stroke="#000000" stroke-linecap="round" stroke-linejoin="round" stroke-width="2.000000"
	d="
M256.500000,105.500000 
	C258.274963,101.774254 262.268738,98.916748 260.290436,93.797737 
	C263.111603,94.475983 262.665619,96.237740 262.439331,97.489029 
	C261.853485,100.728447 263.956573,103.630592 265.660950,104.756310 
	C269.962067,107.597115 269.992004,112.439392 272.471130,116.019981 
	C274.429535,118.848457 276.658417,121.824776 275.902496,125.479828 
	C275.375732,128.026779 275.615387,130.500397 275.526184,133.000931 
	C275.351349,137.902039 274.605774,139.392212 281.500275,139.004974 
	C282.164825,138.967651 282.833344,139.000000 283.500000,139.000000 
"/>
<path fill="none" opacity="1.000000" stroke="#000000" stroke-linecap="round" stroke-linejoin="round" stroke-width="2.000000"
	d="
M333.500000,176.000000 
	C336.772583,176.707169 337.896240,178.573257 337.591736,182.008133 
	C337.210541,186.307663 337.500000,190.666672 337.500000,195.000000 
"/>
<path fill="none" opacity="1.000000" stroke="#000000" stroke-linecap="round" stroke-linejoin="round" stroke-width="2.000000"
	d="
M245.500000,175.000000 
	C242.918198,177.382721 243.532486,180.524490 243.507767,183.500061 
	C243.475906,187.333130 243.500000,191.166672 243.500000,195.000000 
"/>
<path fill="none" opacity="1.000000" stroke="#000000" stroke-linecap="round" stroke-linejoin="round" stroke-width="2.000000"
	d="
M681.500000,139.500000 
	C690.000000,139.500000 698.509827,139.737350 706.995239,139.385147 
	C710.471863,139.240860 712.887573,139.335342 713.000000,143.500000 
"/>
<path fill="none" opacity="1.000000" stroke="#000000" stroke-linecap="round" stroke-linejoin="round" stroke-width="2.000000"
	d="
M382.000000,76.000000 
	C380.942657,80.467010 381.499481,85.009911 381.605743,89.497498 
	C381.663666,91.942863 384.060577,94.062737 386.024170,94.299316 
	C389.759033,94.749283 387.343201,97.161736 388.000000,98.500000 
"/>
<path fill="none" opacity="1.000000" stroke="#000000" stroke-linecap="round" stroke-linejoin="round" stroke-width="2.000000"
	d="
M723.500000,189.500000 
	C719.222107,187.329666 718.333252,184.070435 720.617737,178.197281 
	C718.959656,177.161392 717.229858,176.080704 715.500000,175.000000 
"/>
<path fill="none" opacity="1.000000" stroke="#000000" stroke-linecap="round" stroke-linejoin="round" stroke-width="5.000000"
	d="
M216.500000,138.500000 
	C217.127686,136.007050 215.290451,136.324524 214.006805,136.540421 
	C209.489304,137.300217 205.000000,137.217316 200.500000,136.500000 
"/>
<path fill="none" opacity="1.000000" stroke="#000000" stroke-linecap="round" stroke-linejoin="round" stroke-width="4.000000"
	d="
M589.500000,115.500000 
	C583.500000,115.500000 577.500000,115.500000 571.500000,115.500000 
"/>
<path fill="none" opacity="1.000000" stroke="#000000" stroke-linecap="round" stroke-linejoin="round" stroke-width="4.000000"
	d="
M589.500000,101.500000 
	C583.500000,101.500000 577.500000,101.500000 571.500000,101.500000 
"/>
<path fill="none" opacity="1.000000" stroke="#000000" stroke-linecap="round" stroke-linejoin="round" stroke-width="3.000000"
	d="
M283.500000,156.000000 
	C281.666656,156.000000 279.830841,156.059830 278.000702,155.983139 
	C276.177521,155.906738 275.592285,157.253662 275.592285,158.500000 
	C275.592285,159.746338 276.177521,161.093262 278.000702,161.016861 
	C279.830841,160.940170 281.666656,161.000000 283.500000,161.000000 
"/>
<path fill="none" opacity="1.000000" stroke="#000000" stroke-linecap="round" stroke-linejoin="round" stroke-width="4.000000"
	d="
M589.500000,108.500000 
	C583.500000,108.500000 577.500000,108.500000 571.500000,108.500000 
"/>
<path fill="none" opacity="1.000000" stroke="#000000" stroke-linecap="round" stroke-linejoin="round" stroke-width="2.000000"
	d="
M743.500000,182.000000 
	C742.242065,184.085968 742.889160,185.674683 745.025635,186.427170 
	C745.946960,186.751663 747.248596,186.847580 748.028687,185.516800 
	C748.962646,183.923340 750.705566,182.197113 748.912537,180.598068 
	C747.390625,179.240799 747.142639,177.590271 746.519287,175.992493 
	C745.118042,172.401291 742.801392,171.622818 739.500000,173.500000 
"/>
<path fill="none" opacity="1.000000" stroke="#000000" stroke-linecap="round" stroke-linejoin="round" stroke-width="4.000000"
	d="
M104.500000,181.500000 
	C98.833336,181.500000 93.166664,181.500000 87.500000,181.500000 
"/>
<path fill="none" opacity="1.000000" stroke="#000000" stroke-linecap="round" stroke-linejoin="round" stroke-width="2.000000"
	d="
M671.500000,174.000000 
	C671.833313,174.166672 672.273560,174.248596 672.483337,174.513199 
	C674.421631,176.957657 674.436890,185.685547 672.461487,187.966660 
	C672.247253,188.214096 671.500000,188.000000 671.000000,188.000000 
"/>
<path fill="none" opacity="1.000000" stroke="#000000" stroke-linecap="round" stroke-linejoin="round" stroke-width="4.000000"
	d="
M614.500000,180.500000 
	C613.979980,183.187180 614.897766,185.604599 617.059937,186.899979 
	C619.378784,188.289261 620.196350,190.506042 621.756775,192.312683 
	C617.618591,195.331390 609.016907,195.331390 606.500000,192.500000 
"/>
<path fill="none" opacity="1.000000" stroke="#000000" stroke-linecap="round" stroke-linejoin="round" stroke-width="4.000000"
	d="
M589.500000,122.500000 
	C583.500000,122.500000 577.500000,122.500000 571.500000,122.500000 
"/>
<path fill="none" opacity="1.000000" stroke="#000000" stroke-linecap="round" stroke-linejoin="round" stroke-width="4.000000"
	d="
M216.500000,122.500000 
	C211.166672,122.500000 205.833328,122.500000 200.500000,122.500000 
"/>
<path fill="none" opacity="1.000000" stroke="#000000" stroke-linecap="round" stroke-linejoin="round" stroke-width="4.000000"
	d="
M216.500000,129.500000 
	C211.166672,129.500000 205.833328,129.500000 200.500000,129.500000 
"/>
<path fill="none" opacity="1.000000" stroke="#000000" stroke-linecap="round" stroke-linejoin="round" stroke-width="4.000000"
	d="
M216.500000,144.500000 
	C211.166672,144.500000 205.833328,144.500000 200.500000,144.500000 
"/>
<path fill="none" opacity="1.000000" stroke="#000000" stroke-linecap="round" stroke-linejoin="round" stroke-width="4.000000"
	d="
M216.500000,151.500000 
	C211.166672,151.500000 205.833328,151.500000 200.500000,151.500000 
"/>
<path fill="none" opacity="1.000000" stroke="#000000" stroke-linecap="round" stroke-linejoin="round" stroke-width="2.000000"
	d="
M410.000000,176.500000 
	C412.006348,178.608994 412.569519,181.082901 412.571106,183.999954 
	C412.574646,190.499802 410.376312,191.541458 405.000000,188.000000 
"/>
<path fill="none" opacity="1.000000" stroke="#000000" stroke-linecap="round" stroke-linejoin="round" stroke-width="4.000000"
	d="
M358.500000,139.000000 
	C353.531158,137.898270 348.495819,138.791748 343.500000,138.500000 
"/>
<path fill="none" opacity="1.000000" stroke="#000000" stroke-linecap="round" stroke-linejoin="round" stroke-width="2.000000"
	d="
M758.000000,173.000000 
	C755.903320,176.189987 754.275208,179.539658 754.505310,183.499695 
	C754.576965,184.733383 753.933594,186.401871 755.516541,186.952484 
	C759.403748,188.304581 758.075806,191.886841 759.000000,194.500000 
"/>
<path fill="none" opacity="1.000000" stroke="#000000" stroke-linecap="round" stroke-linejoin="round" stroke-width="4.000000"
	d="
M358.500000,103.000000 
	C353.531158,104.101723 348.495819,103.208252 343.500000,103.500000 
"/>
<path fill="none" opacity="1.000000" stroke="#000000" stroke-linecap="round" stroke-linejoin="round" stroke-width="3.000000"
	d="
M457.500000,160.000000 
	C462.500000,160.333328 467.500000,160.666672 472.500000,161.000000 
"/>
<path fill="none" opacity="1.000000" stroke="#000000" stroke-linecap="round" stroke-linejoin="round" stroke-width="4.000000"
	d="
M473.500000,89.000000 
	C468.531158,90.101723 463.495819,89.208252 458.500000,89.500000 
"/>
<path fill="none" opacity="1.000000" stroke="#000000" stroke-linecap="round" stroke-linejoin="round" stroke-width="4.000000"
	d="
M582.000000,145.500000 
	C583.546387,147.642746 581.706360,149.503311 581.401550,151.662476 
	C578.166687,150.172882 574.833313,151.575378 571.500000,151.500000 
"/>
<path fill="none" opacity="1.000000" stroke="#000000" stroke-linecap="round" stroke-linejoin="round" stroke-width="4.000000"
	d="
M358.500000,146.000000 
	C353.531158,144.898270 348.495819,145.791748 343.500000,145.500000 
"/>
<path fill="none" opacity="1.000000" stroke="#000000" stroke-linecap="round" stroke-linejoin="round" stroke-width="2.000000"
	d="
M642.000000,193.500000 
	C642.822021,192.997162 642.568481,191.610107 642.475586,191.582703 
	C638.923889,190.534271 637.119141,185.359299 632.521362,187.057816 
	C629.722229,188.091873 627.445374,189.910889 628.000000,193.500000 
"/>
<path fill="none" opacity="1.000000" stroke="#000000" stroke-linecap="round" stroke-linejoin="round" stroke-width="4.000000"
	d="
M357.500000,131.500000 
	C352.833344,131.500000 348.166656,131.500000 343.500000,131.500000 
"/>
<path fill="none" opacity="1.000000" stroke="#000000" stroke-linecap="round" stroke-linejoin="round" stroke-width="4.000000"
	d="
M472.500000,131.500000 
	C467.833344,131.500000 463.166656,131.500000 458.500000,131.500000 
"/>
<path fill="none" opacity="1.000000" stroke="#000000" stroke-linecap="round" stroke-linejoin="round" stroke-width="4.000000"
	d="
M472.500000,181.500000 
	C467.833344,181.500000 463.166656,181.500000 458.500000,181.500000 
"/>
<path fill="none" opacity="1.000000" stroke="#000000" stroke-linecap="round" stroke-linejoin="round" stroke-width="2.000000"
	d="
M674.500000,129.500000 
	C678.813171,130.415054 682.454041,132.956039 686.515747,134.457428 
	C688.830322,135.313019 687.686829,137.096603 688.000000,138.500000 
"/>
<path fill="none" opacity="1.000000" stroke="#000000" stroke-linecap="round" stroke-linejoin="round" stroke-width="4.000000"
	d="
M583.500000,131.500000 
	C585.095459,129.261719 582.504028,129.616882 581.995422,129.591507 
	C578.504150,129.417252 575.000000,129.500000 571.500000,129.500000 
"/>
<path fill="none" opacity="1.000000" stroke="#000000" stroke-linecap="round" stroke-linejoin="round" stroke-width="4.000000"
	d="
M472.500000,174.500000 
	C467.833344,174.500000 463.166656,174.500000 458.500000,174.500000 
"/>
<path fill="none" opacity="1.000000" stroke="#000000" stroke-linecap="round" stroke-linejoin="round" stroke-width="4.000000"
	d="
M472.500000,167.500000 
	C467.833344,167.500000 463.166656,167.500000 458.500000,167.500000 
"/>
<path fill="none" opacity="1.000000" stroke="#000000" stroke-linecap="round" stroke-linejoin="round" stroke-width="4.000000"
	d="
M472.500000,145.500000 
	C467.833344,145.500000 463.166656,145.500000 458.500000,145.500000 
"/>
<path fill="none" opacity="1.000000" stroke="#000000" stroke-linecap="round" stroke-linejoin="round" stroke-width="3.000000"
	d="
M716.500000,189.000000 
	C711.833313,189.000000 707.166687,189.000000 702.500000,189.000000 
"/>
<path fill="none" opacity="1.000000" stroke="#000000" stroke-linecap="round" stroke-linejoin="round" stroke-width="3.000000"
	d="
M716.500000,185.000000 
	C711.833313,185.000000 707.166687,185.000000 702.500000,185.000000 
"/>
<path fill="none" opacity="1.000000" stroke="#000000" stroke-linecap="round" stroke-linejoin="round" stroke-width="4.000000"
	d="
M472.500000,138.500000 
	C467.833344,138.500000 463.166656,138.500000 458.500000,138.500000 
"/>
<path fill="none" opacity="1.000000" stroke="#000000" stroke-linecap="round" stroke-linejoin="round" stroke-width="4.000000"
	d="
M472.500000,117.500000 
	C467.833344,117.500000 463.166656,117.500000 458.500000,117.500000 
"/>
<path fill="none" opacity="1.000000" stroke="#000000" stroke-linecap="round" stroke-linejoin="round" stroke-width="4.000000"
	d="
M472.500000,103.500000 
	C467.833344,103.500000 463.166656,103.500000 458.500000,103.500000 
"/>
<path fill="none" opacity="1.000000" stroke="#000000" stroke-linecap="round" stroke-linejoin="round" stroke-width="4.000000"
	d="
M357.500000,124.500000 
	C352.833344,124.500000 348.166656,124.500000 343.500000,124.500000 
"/>
<path fill="none" opacity="1.000000" stroke="#000000" stroke-linecap="round" stroke-linejoin="round" stroke-width="4.000000"
	d="
M472.500000,124.500000 
	C467.833344,124.500000 463.166656,124.500000 458.500000,124.500000 
"/>
<path fill="none" opacity="1.000000" stroke="#000000" stroke-linecap="round" stroke-linejoin="round" stroke-width="4.000000"
	d="
M472.500000,96.500000 
	C467.833344,96.500000 463.166656,96.500000 458.500000,96.500000 
"/>
<path fill="none" opacity="1.000000" stroke="#000000" stroke-linecap="round" stroke-linejoin="round" stroke-width="4.000000"
	d="
M357.500000,110.500000 
	C352.833344,110.500000 348.166656,110.500000 343.500000,110.500000 
"/>
<path fill="none" opacity="1.000000" stroke="#000000" stroke-linecap="round" stroke-linejoin="round" stroke-width="4.000000"
	d="
M357.500000,117.500000 
	C352.833344,117.500000 348.166656,117.500000 343.500000,117.500000 
"/>
<path fill="none" opacity="1.000000" stroke="#000000" stroke-linecap="round" stroke-linejoin="round" stroke-width="4.000000"
	d="
M472.500000,110.500000 
	C467.833344,110.500000 463.166656,110.500000 458.500000,110.500000 
"/>
<path fill="none" opacity="1.000000" stroke="#000000" stroke-linecap="round" stroke-linejoin="round" stroke-width="2.000000"
	d="
M649.500000,177.000000 
	C648.521179,175.599411 645.340454,178.528259 645.296082,174.502243 
	C645.272278,172.334534 641.071289,172.974930 640.626343,173.224884 
	C636.177429,175.724396 631.095703,175.049561 626.500000,176.500000 
"/>
<path fill="none" opacity="1.000000" stroke="#000000" stroke-linecap="round" stroke-linejoin="round" stroke-width="3.000000"
	d="
M283.500000,165.000000 
	C282.666656,165.000000 281.794830,164.841476 281.007935,165.032684 
	C279.320374,165.442703 277.074036,163.817902 275.979004,166.491409 
	C274.992615,168.899780 276.649811,170.106735 278.000000,171.500000 
"/>
<path fill="none" opacity="1.000000" stroke="#000000" stroke-linecap="round" stroke-linejoin="round" stroke-width="2.000000"
	d="
M483.500000,187.000000 
	C488.579315,185.430801 490.140930,189.634384 492.442322,192.545609 
	C492.557373,192.691147 491.833344,193.500000 491.500000,194.000000 
"/>
<path fill="none" opacity="1.000000" stroke="#000000" stroke-linecap="round" stroke-linejoin="round" stroke-width="3.000000"
	d="
M202.500000,180.500000 
	C202.150116,181.120865 203.210907,182.195724 201.989822,182.451385 
	C201.443039,182.565872 200.843658,182.810379 200.327438,181.571930 
	C199.673935,180.004120 200.848236,178.274460 199.325027,176.792969 
	C197.676086,176.871872 195.841080,176.959686 194.018524,177.046906 
	C193.290329,175.182297 193.584595,172.999542 192.000000,171.500000 
"/>
<path fill="none" opacity="1.000000" stroke="#000000" stroke-linecap="round" stroke-linejoin="round" stroke-width="2.000000"
	d="
M225.500000,173.500000 
	C224.513062,173.254944 223.553726,173.502960 222.463104,173.099808 
	C218.972000,171.809311 216.880127,173.344681 216.491043,176.999054 
	C216.344940,178.371246 217.090622,179.917984 215.514160,181.020248 
	C213.732803,182.265747 215.048462,183.831833 215.586700,184.958588 
	C216.274368,186.398209 218.341415,187.239624 219.409058,186.386215 
	C221.608292,184.628311 222.916245,186.004288 224.500000,187.000000 
"/>
<path fill="none" opacity="1.000000" stroke="#000000" stroke-linecap="round" stroke-linejoin="round" stroke-width="2.000000"
	d="
M508.500000,182.500000 
	C510.564087,186.528214 509.010834,190.845795 509.500000,195.000000 
"/>
<path fill="none" opacity="1.000000" stroke="#000000" stroke-linecap="round" stroke-linejoin="round" stroke-width="2.000000"
	d="
M345.500000,157.500000 
	C345.000000,157.833328 344.158875,158.082047 344.052002,158.512894 
	C342.779083,163.644989 339.250305,163.060257 335.500000,162.000000 
"/>
<path fill="none" opacity="1.000000" stroke="#000000" stroke-linecap="round" stroke-linejoin="round" stroke-width="2.000000"
	d="
M683.000000,182.500000 
	C684.088501,186.629791 683.222412,190.837769 683.500000,195.000000 
"/>
<path fill="none" opacity="1.000000" stroke="#000000" stroke-linecap="round" stroke-linejoin="round" stroke-width="2.000000"
	d="
M716.500000,144.500000 
	C714.261475,143.885056 712.823853,145.085434 712.597656,147.011459 
	C712.353882,149.087448 711.664551,151.804001 715.000000,152.500000 
"/>
<path fill="none" opacity="1.000000" stroke="#000000" stroke-linecap="round" stroke-linejoin="round" stroke-width="2.000000"
	d="
M37.500000,178.500000 
	C39.578197,183.842743 38.927048,186.707809 34.500000,189.855515 
	C34.500000,187.523911 34.500000,185.511948 34.500000,183.500000 
"/>
<path fill="none" opacity="1.000000" stroke="#000000" stroke-linecap="round" stroke-linejoin="round" stroke-width="4.000000"
	d="
M571.500000,136.500000 
	C574.833313,136.500000 578.166687,136.500000 581.424500,136.500000 
	C581.706360,138.496689 583.546387,140.357254 582.000000,142.500000 
"/>
<path fill="none" opacity="1.000000" stroke="#000000" stroke-linecap="round" stroke-linejoin="round" stroke-width="2.000000"
	d="
M535.000000,183.500000 
	C536.099304,187.292786 535.221008,191.171555 535.500000,195.000000 
"/>
<path fill="none" opacity="1.000000" stroke="#000000" stroke-linecap="round" stroke-linejoin="round" stroke-width="2.000000"
	d="
M417.500000,195.000000 
	C410.500000,195.836166 403.500000,195.807556 396.500000,195.000000 
"/>
<path fill="none" opacity="1.000000" stroke="#000000" stroke-linecap="round" stroke-linejoin="round" stroke-width="2.000000"
	d="
M522.500000,127.500000 
	C520.493774,127.500000 518.487610,127.500000 516.127686,127.500000 
	C516.884033,134.088699 511.600067,130.258469 509.500000,132.000000 
"/>
<path fill="none" opacity="1.000000" stroke="#000000" stroke-linecap="round" stroke-linejoin="round" stroke-width="4.000000"
	d="
M628.500000,194.500000 
	C632.833313,194.500000 637.166687,194.500000 641.500000,194.500000 
"/>
<path fill="none" opacity="1.000000" stroke="#000000" stroke-linecap="round" stroke-linejoin="round" stroke-width="3.000000"
	d="
M176.000000,172.000000 
	C173.936966,173.238785 170.875549,172.644913 169.878708,175.963562 
	C169.401245,177.553085 167.468216,177.412384 166.000000,176.500000 
"/>
<path fill="none" opacity="1.000000" stroke="#000000" stroke-linecap="round" stroke-linejoin="round" stroke-width="3.000000"
	d="
M345.500000,179.500000 
	C344.051239,182.549255 341.682007,185.501617 344.500000,189.000000 
"/>
<path fill="none" opacity="1.000000" stroke="#000000" stroke-linecap="round" stroke-linejoin="round" stroke-width="2.000000"
	d="
M287.000000,127.500000 
	C283.500000,126.666672 280.000000,125.833336 276.500000,125.000000 
"/>
<path fill="none" opacity="1.000000" stroke="#000000" stroke-linecap="round" stroke-linejoin="round" stroke-width="4.000000"
	d="
M358.500000,153.000000 
	C353.535400,151.771118 348.485077,153.114182 343.500000,152.500000 
"/>
<path fill="none" opacity="1.000000" stroke="#000000" stroke-linecap="round" stroke-linejoin="round" stroke-width="4.000000"
	d="
M585.500000,92.500000 
	C582.166687,92.500000 578.833313,92.500000 575.500000,92.500000 
"/>
<path fill="none" opacity="1.000000" stroke="#000000" stroke-linecap="round" stroke-linejoin="round" stroke-width="4.000000"
	d="
M585.500000,85.500000 
	C582.166687,85.500000 578.833313,85.500000 575.500000,85.500000 
"/>
<path fill="none" opacity="1.000000" stroke="#000000" stroke-linecap="round" stroke-linejoin="round" stroke-width="2.000000"
	d="
M642.500000,195.000000 
	C648.500000,195.659470 654.500000,195.834091 660.500000,195.000000 
"/>
<path fill="none" opacity="1.000000" stroke="#000000" stroke-linecap="round" stroke-linejoin="round" stroke-width="4.000000"
	d="
M585.500000,78.500000 
	C582.166687,78.500000 578.833313,78.500000 575.500000,78.500000 
"/>
<path fill="none" opacity="1.000000" stroke="#000000" stroke-linecap="round" stroke-linejoin="round" stroke-width="2.000000"
	d="
M501.500000,195.000000 
	C498.166656,195.792435 494.833344,195.792435 491.500000,195.000000 
"/>
<path fill="none" opacity="1.000000" stroke="#000000" stroke-linecap="round" stroke-linejoin="round" stroke-width="2.000000"
	d="
M440.500000,185.500000 
	C444.440552,187.977432 441.651337,191.871643 442.500000,195.000000 
"/>
<path fill="none" opacity="1.000000" stroke="#000000" stroke-linecap="round" stroke-linejoin="round" stroke-width="2.000000"
	d="
M623.500000,173.500000 
	C627.468018,175.557327 624.601746,180.313568 627.330688,183.162186 
	C628.373169,184.250305 625.397766,185.589996 624.500000,187.000000 
"/>
<path fill="none" opacity="1.000000" stroke="#000000" stroke-linecap="round" stroke-linejoin="round" stroke-width="2.000000"
	d="
M74.500000,190.000000 
	C68.593498,186.811798 68.812477,180.899429 75.299362,176.287140 
	C76.165588,182.702667 75.104408,188.845169 74.500000,195.000000 
"/>
<path fill="none" opacity="1.000000" stroke="#000000" stroke-linecap="round" stroke-linejoin="round" stroke-width="2.000000"
	d="
M487.000000,127.999992 
	C491.833344,129.833328 496.666656,131.666656 501.500000,133.500000 
"/>
<path fill="none" opacity="1.000000" stroke="#000000" stroke-linecap="round" stroke-linejoin="round" stroke-width="5.000000"
	d="
M581.000000,144.000000 
	C577.838196,143.740982 574.620544,144.542923 571.500000,143.500000 
"/>
<path fill="none" opacity="1.000000" stroke="#000000" stroke-linecap="round" stroke-linejoin="round" stroke-width="2.000000"
	d="
M261.000000,177.000000 
	C255.553574,179.859177 253.528000,184.094467 255.500000,188.500000 
"/>
<path fill="none" opacity="1.000000" stroke="#000000" stroke-linecap="round" stroke-linejoin="round" stroke-width="2.000000"
	d="
M496.500000,181.500000 
	C498.008698,184.265396 496.243774,189.076797 501.500000,189.500000 
"/>
<path fill="none" opacity="1.000000" stroke="#000000" stroke-linecap="round" stroke-linejoin="round" stroke-width="2.000000"
	d="
M706.500000,174.500000 
	C702.767700,174.803894 700.522522,176.718857 700.000000,180.500000 
"/>
<path fill="none" opacity="1.000000" stroke="#000000" stroke-linecap="round" stroke-linejoin="round" stroke-width="2.000000"
	d="
M758.500000,171.500000 
	C761.039124,175.712448 763.931580,179.753815 764.060425,184.998520 
	C764.085938,186.036652 764.312683,187.598480 765.515686,187.945618 
	C769.542114,189.107544 768.234009,192.352097 768.500000,195.000000 
"/>
<path fill="none" opacity="1.000000" stroke="#000000" stroke-linecap="round" stroke-linejoin="round" stroke-width="2.000000"
	d="
M748.500000,186.000000 
	C750.478577,188.817200 749.075500,192.010132 749.500000,195.000000 
"/>
<path fill="none" opacity="1.000000" stroke="#000000" stroke-linecap="round" stroke-linejoin="round" stroke-width="4.000000"
	d="
M216.500000,160.500000 
	C216.422424,159.516510 217.050339,158.345490 214.997147,158.433655 
	C210.172714,158.640823 205.333328,158.500000 200.500000,158.500000 
"/>
<path fill="none" opacity="1.000000" stroke="#000000" stroke-linecap="round" stroke-linejoin="round" stroke-width="2.000000"
	d="
M366.500000,77.500000 
	C366.291321,80.330864 366.976135,83.214279 366.000000,86.000000 
"/>
<path fill="none" opacity="1.000000" stroke="#000000" stroke-linecap="round" stroke-linejoin="round" stroke-width="3.000000"
	d="
M581.000000,158.500000 
	C578.166687,157.624939 575.333313,157.854752 572.500000,158.500000 
"/>
<path fill="none" opacity="1.000000" stroke="#000000" stroke-linecap="round" stroke-linejoin="round" stroke-width="3.000000"
	d="
M193.000000,114.500000 
	C193.000000,127.000000 193.000000,139.500000 193.000000,152.000000 
	C193.000000,157.000000 192.875565,162.004486 193.055496,166.998001 
	C193.138351,169.297363 192.055115,170.758087 190.480423,171.974670 
	C188.322723,173.641708 178.293365,173.406540 176.033264,171.705795 
	C175.939484,171.635223 176.333328,170.916672 176.500000,170.500000 
"/>
<path fill="none" opacity="1.000000" stroke="#000000" stroke-linecap="round" stroke-linejoin="round" stroke-width="2.000000"
	d="
M147.500000,182.000000 
	C147.500000,186.333328 147.500000,190.666672 147.500000,195.000000 
"/>
<path fill="none" opacity="1.000000" stroke="#000000" stroke-linecap="round" stroke-linejoin="round" stroke-width="2.000000"
	d="
M744.000000,186.500000 
	C742.885681,189.277588 743.787476,192.173767 743.500000,195.000000 
"/>
<path fill="none" opacity="1.000000" stroke="#000000" stroke-linecap="round" stroke-linejoin="round" stroke-width="2.000000"
	d="
M414.500000,139.000000 
	C410.500000,139.329391 406.500000,140.075226 402.500000,139.000000 
"/>
<path fill="none" opacity="1.000000" stroke="#000000" stroke-linecap="round" stroke-linejoin="round" stroke-width="2.000000"
	d="
M436.500000,127.000000 
	C434.149200,127.751495 434.506866,129.719360 434.504822,131.500000 
	C434.494385,140.500000 434.494324,149.500000 434.504761,158.500000 
	C434.506805,160.280640 434.149200,162.248505 436.500000,163.000000 
"/>
<path fill="none" opacity="1.000000" stroke="#000000" stroke-linecap="round" stroke-linejoin="round" stroke-width="2.000000"
	d="
M269.500000,178.500000 
	C268.105011,179.265488 266.970520,180.018784 266.948181,181.999420 
	C266.875641,188.429840 266.406891,188.810684 260.500000,188.500000 
	C260.500000,190.666672 260.500000,192.833328 260.500000,195.000000 
"/>
<path fill="none" opacity="1.000000" stroke="#000000" stroke-linecap="round" stroke-linejoin="round" stroke-width="2.000000"
	d="
M440.500000,184.500000 
	C439.865082,185.329407 438.989410,185.556885 437.481995,185.469727 
	C437.585663,183.347214 437.782654,180.860977 435.000000,180.000000 
"/>
<path fill="none" opacity="1.000000" stroke="#000000" stroke-linecap="round" stroke-linejoin="round" stroke-width="2.000000"
	d="
M501.500000,171.500000 
	C503.779510,174.482559 505.405029,177.759399 506.000000,181.500000 
"/>
<path fill="none" opacity="1.000000" stroke="#000000" stroke-linecap="round" stroke-linejoin="round" stroke-width="2.000000"
	d="
M152.500000,187.000000 
	C152.500000,189.666672 152.500000,192.333328 152.500000,195.000000 
"/>
<path fill="none" opacity="1.000000" stroke="#000000" stroke-linecap="round" stroke-linejoin="round" stroke-width="4.000000"
	d="
M293.500000,194.500000 
	C297.833344,194.500000 302.166656,194.500000 306.500000,194.500000 
"/>
<path fill="none" opacity="1.000000" stroke="#000000" stroke-linecap="round" stroke-linejoin="round" stroke-width="2.000000"
	d="
M59.500000,194.500000 
	C59.399605,192.786743 59.241241,191.175934 58.675625,189.442688 
	C57.907749,187.089661 57.085041,189.493164 56.500000,189.000000 
"/>
<path fill="none" opacity="1.000000" stroke="#000000" stroke-linecap="round" stroke-linejoin="round" stroke-width="2.000000"
	d="
M416.000000,136.500000 
	C415.853455,139.076340 417.065063,139.627060 421.500000,139.000000 
"/>
<path fill="none" opacity="1.000000" stroke="#000000" stroke-linecap="round" stroke-linejoin="round" stroke-width="2.000000"
	d="
M508.500000,132.500000 
	C510.360687,136.544479 508.908722,140.848129 509.275482,145.019745 
	C509.589508,148.591049 508.916107,152.306961 509.438904,156.008636 
	C509.832886,158.798355 509.131775,161.621246 509.253204,164.510376 
	C509.447693,169.138321 508.813385,173.827744 509.460907,178.505417 
	C509.570984,179.300446 509.322601,180.818390 508.976410,180.901230 
	C504.538239,181.962982 506.386108,186.782990 504.000000,189.000000 
"/>
<path fill="none" opacity="1.000000" stroke="#000000" stroke-linecap="round" stroke-linejoin="round" stroke-width="2.000000"
	d="
M588.000000,179.500000 
	C587.833313,184.666672 587.666687,189.833328 587.500000,195.000000 
"/>
<path fill="none" opacity="1.000000" stroke="#000000" stroke-linecap="round" stroke-linejoin="round" stroke-width="2.000000"
	d="
M700.500000,195.000000 
	C700.312866,192.685776 701.242188,190.028046 698.500000,188.500000 
"/>
<path fill="none" opacity="1.000000" stroke="#000000" stroke-linecap="round" stroke-linejoin="round" stroke-width="2.000000"
	d="
M353.500000,182.500000 
	C355.750122,185.064117 356.954346,187.467331 352.500000,189.000000 
"/>
<path fill="none" opacity="1.000000" stroke="#000000" stroke-linecap="round" stroke-linejoin="round" stroke-width="3.000000"
	d="
M283.500000,143.000000 
	C281.166656,143.000000 278.833344,143.000000 276.500000,143.000000 
"/>
<path fill="none" opacity="1.000000" stroke="#000000" stroke-linecap="round" stroke-linejoin="round" stroke-width="2.000000"
	d="
M533.500000,175.000000 
	C536.290222,176.638153 535.734741,179.048401 535.000000,181.500000 
"/>
<path fill="none" opacity="1.000000" stroke="#000000" stroke-linecap="round" stroke-linejoin="round" stroke-width="2.000000"
	d="
M533.500000,161.000000 
	C536.290222,162.638153 535.734741,165.048401 535.000000,167.500000 
"/>
<path fill="none" opacity="1.000000" stroke="#000000" stroke-linecap="round" stroke-linejoin="round" stroke-width="2.000000"
	d="
M533.500000,168.000000 
	C536.290222,169.638153 535.734741,172.048401 535.000000,174.500000 
"/>
<path fill="none" opacity="1.000000" stroke="#000000" stroke-linecap="round" stroke-linejoin="round" stroke-width="2.000000"
	d="
M394.500000,195.000000 
	C392.166656,195.815125 389.833344,195.815125 387.500000,195.000000 
"/>
<path fill="none" opacity="1.000000" stroke="#000000" stroke-linecap="round" stroke-linejoin="round" stroke-width="3.000000"
	d="
M283.500000,152.000000 
	C281.166656,152.000000 278.833344,152.000000 276.500000,152.000000 
"/>
<path fill="none" opacity="1.000000" stroke="#000000" stroke-linecap="round" stroke-linejoin="round" stroke-width="2.000000"
	d="
M535.000000,140.500000 
	C535.734741,142.951599 536.290222,145.361847 533.500000,147.000000 
"/>
<path fill="none" opacity="1.000000" stroke="#000000" stroke-linecap="round" stroke-linejoin="round" stroke-width="3.000000"
	d="
M391.500000,178.500000 
	C389.029572,182.278900 389.116760,186.009171 393.074768,188.374908 
	C395.867493,190.044113 395.451843,192.172852 395.500000,194.500000 
"/>
<path fill="none" opacity="1.000000" stroke="#000000" stroke-linecap="round" stroke-linejoin="round" stroke-width="2.000000"
	d="
M713.000000,153.500000 
	C712.037231,155.865692 712.201477,157.949631 714.500000,159.500000 
"/>
<path fill="none" opacity="1.000000" stroke="#000000" stroke-linecap="round" stroke-linejoin="round" stroke-width="2.000000"
	d="
M535.000000,147.500000 
	C535.734741,149.951599 536.290222,152.361847 533.500000,154.000000 
"/>
<path fill="none" opacity="1.000000" stroke="#000000" stroke-linecap="round" stroke-linejoin="round" stroke-width="3.000000"
	d="
M253.500000,185.000000 
	C251.166672,185.000000 248.833328,185.000000 246.500000,185.000000 
"/>
<path fill="none" opacity="1.000000" stroke="#000000" stroke-linecap="round" stroke-linejoin="round" stroke-width="2.000000"
	d="
M388.000000,159.500000 
	C387.923462,166.375519 385.894775,173.393875 389.500000,180.000000 
"/>
<path fill="none" opacity="1.000000" stroke="#000000" stroke-linecap="round" stroke-linejoin="round" stroke-width="2.000000"
	d="
M435.000000,163.500000 
	C433.838379,167.666672 434.637329,171.887192 435.173065,175.977341 
	C435.441772,178.028946 434.932129,178.732819 433.500000,179.500000 
"/>
<path fill="none" opacity="1.000000" stroke="#000000" stroke-linecap="round" stroke-linejoin="round" stroke-width="2.000000"
	d="
M522.000000,188.500000 
	C520.859375,190.591751 521.823242,192.845383 521.500000,195.000000 
"/>
<path fill="none" opacity="1.000000" stroke="#000000" stroke-linecap="round" stroke-linejoin="round" stroke-width="2.000000"
	d="
M367.500000,174.500000 
	C365.779388,172.490433 363.855865,171.698135 361.500000,173.500000 
"/>
<path fill="none" opacity="1.000000" stroke="#000000" stroke-linecap="round" stroke-linejoin="round" stroke-width="2.000000"
	d="
M403.500000,181.500000 
	C405.311523,184.500000 404.259277,187.500000 403.500000,190.500000 
"/>
<path fill="none" opacity="1.000000" stroke="#000000" stroke-linecap="round" stroke-linejoin="round" stroke-width="2.000000"
	d="
M30.500000,180.500000 
	C30.816788,183.830505 28.959236,187.754196 33.929184,189.682510 
	C35.405575,190.255341 34.261391,193.173203 34.500000,195.000000 
"/>
<path fill="none" opacity="1.000000" stroke="#000000" stroke-linecap="round" stroke-linejoin="round" stroke-width="2.000000"
	d="
M226.500000,173.500000 
	C224.927185,176.483429 225.035812,177.243851 227.500000,180.500000 
"/>
<path fill="none" opacity="1.000000" stroke="#000000" stroke-linecap="round" stroke-linejoin="round" stroke-width="3.000000"
	d="
M616.000000,186.500000 
	C611.942688,186.263519 609.161560,188.324127 607.000000,191.500000 
"/>
<path fill="none" opacity="1.000000" stroke="#000000" stroke-linecap="round" stroke-linejoin="round" stroke-width="2.000000"
	d="
M266.500000,179.000000 
	C261.102203,174.956772 254.624771,175.771866 248.500000,175.000000 
"/>
<path fill="none" opacity="1.000000" stroke="#000000" stroke-linecap="round" stroke-linejoin="round" stroke-width="3.000000"
	d="
M593.500000,161.000000 
	C591.333069,161.163330 589.107971,160.570633 586.684143,161.625000 
	C588.786255,163.625778 586.608521,166.317825 588.000000,168.500000 
"/>
<path fill="none" opacity="1.000000" stroke="#000000" stroke-linecap="round" stroke-linejoin="round" stroke-width="2.000000"
	d="
M662.500000,177.500000 
	C662.329163,176.335419 660.850525,175.824738 661.494385,174.248398 
	C659.814941,174.774628 658.657471,175.137314 657.500000,175.499985 
"/>
<path fill="none" opacity="1.000000" stroke="#000000" stroke-linecap="round" stroke-linejoin="round" stroke-width="2.000000"
	d="
M733.500000,178.500000 
	C731.960327,179.077393 730.762512,180.423920 729.112427,179.989944 
	C728.501831,182.833801 728.000916,185.166901 727.500000,187.500000 
"/>
<path fill="none" opacity="1.000000" stroke="#000000" stroke-linecap="round" stroke-linejoin="round" stroke-width="2.000000"
	d="
M130.500000,179.500000 
	C130.618759,181.065369 130.095779,182.215683 129.105667,183.576859 
	C127.195747,186.202515 128.572968,188.405212 132.000656,188.453369 
	C134.662216,188.490768 137.333939,188.857391 140.026016,188.091415 
	C141.152283,187.770966 143.074249,187.271194 143.500000,189.500000 
"/>
<path fill="none" opacity="1.000000" stroke="#000000" stroke-linecap="round" stroke-linejoin="round" stroke-width="3.000000"
	d="
M200.000000,183.500000 
	C200.000000,187.166672 200.000000,190.833328 200.000000,194.500000 
"/>
<path fill="none" opacity="1.000000" stroke="#000000" stroke-linecap="round" stroke-linejoin="round" stroke-width="2.000000"
	d="
M535.000000,154.500000 
	C535.805664,156.500000 535.805664,158.500000 535.000000,160.500000 
"/>
<path fill="none" opacity="1.000000" stroke="#000000" stroke-linecap="round" stroke-linejoin="round" stroke-width="2.000000"
	d="
M582.000000,152.500000 
	C583.708679,155.604187 580.481140,158.434143 581.500000,161.500000 
"/>
<path fill="none" opacity="1.000000" stroke="#000000" stroke-linecap="round" stroke-linejoin="round" stroke-width="2.000000"
	d="
M388.000000,122.500000 
	C387.194366,124.500000 387.194366,126.500000 388.000000,128.500000 
"/>
<path fill="none" opacity="1.000000" stroke="#000000" stroke-linecap="round" stroke-linejoin="round" stroke-width="2.000000"
	d="
M388.000000,100.500000 
	C387.194366,102.500000 387.194366,104.500000 388.000000,106.500000 
"/>
<path fill="none" opacity="1.000000" stroke="#000000" stroke-linecap="round" stroke-linejoin="round" stroke-width="2.000000"
	d="
M388.000000,144.500000 
	C387.194366,146.500000 387.194366,148.500000 388.000000,150.500000 
"/>
<path fill="none" opacity="1.000000" stroke="#000000" stroke-linecap="round" stroke-linejoin="round" stroke-width="3.000000"
	d="
M134.500000,185.500000 
	C133.268784,188.440857 134.734314,191.531540 134.000000,194.500000 
"/>
<path fill="none" opacity="1.000000" stroke="#000000" stroke-linecap="round" stroke-linejoin="round" stroke-width="2.000000"
	d="
M726.500000,175.500000 
	C727.166687,177.333328 727.833374,179.166656 728.500000,181.000000 
"/>
<path fill="none" opacity="1.000000" stroke="#000000" stroke-linecap="round" stroke-linejoin="round" stroke-width="2.000000"
	d="
M217.500000,187.000000 
	C217.333328,189.500000 217.166656,192.000000 217.000000,194.500000 
"/>
<path fill="none" opacity="1.000000" stroke="#000000" stroke-linecap="round" stroke-linejoin="round" stroke-width="2.000000"
	d="
M161.500000,180.000000 
	C158.812057,179.870560 156.425430,181.376389 155.200623,183.139374 
	C154.123993,184.689117 152.754776,186.695145 151.562271,186.308121 
	C148.715683,185.384216 145.455521,187.640976 143.000000,185.000000 
"/>
<path fill="none" opacity="1.000000" stroke="#000000" stroke-linecap="round" stroke-linejoin="round" stroke-width="2.000000"
	d="
M268.000000,184.000000 
	C271.100006,185.188889 270.217865,187.873352 269.890961,189.983109 
	C269.629547,191.669968 269.589600,193.325623 269.500000,195.000000 
"/>
<path fill="none" opacity="1.000000" stroke="#000000" stroke-linecap="round" stroke-linejoin="round" stroke-width="2.000000"
	d="
M606.500000,169.500000 
	C608.166687,170.333328 609.833313,171.166656 611.500000,172.000000 
"/>
<path fill="none" opacity="1.000000" stroke="#000000" stroke-linecap="round" stroke-linejoin="round" stroke-width="2.000000"
	d="
M683.000000,161.500000 
	C683.793518,163.166672 683.793518,164.833328 683.000000,166.500000 
"/>
<path fill="none" opacity="1.000000" stroke="#000000" stroke-linecap="round" stroke-linejoin="round" stroke-width="2.000000"
	d="
M388.000000,108.500000 
	C387.206482,110.166664 387.206482,111.833336 388.000000,113.500000 
"/>
<path fill="none" opacity="1.000000" stroke="#000000" stroke-linecap="round" stroke-linejoin="round" stroke-width="2.000000"
	d="
M713.000000,160.500000 
	C712.206482,162.166672 712.206482,163.833328 713.000000,165.500000 
"/>
<path fill="none" opacity="1.000000" stroke="#000000" stroke-linecap="round" stroke-linejoin="round" stroke-width="2.000000"
	d="
M388.000000,115.500000 
	C387.206482,117.166664 387.206482,118.833336 388.000000,120.500000 
"/>
<path fill="none" opacity="1.000000" stroke="#000000" stroke-linecap="round" stroke-linejoin="round" stroke-width="2.000000"
	d="
M388.000000,152.500000 
	C387.206482,154.166672 387.206482,155.833328 388.000000,157.500000 
"/>
<path fill="none" opacity="1.000000" stroke="#000000" stroke-linecap="round" stroke-linejoin="round" stroke-width="2.000000"
	d="
M683.000000,154.500000 
	C683.793518,156.166672 683.793518,157.833328 683.000000,159.500000 
"/>
<path fill="none" opacity="1.000000" stroke="#000000" stroke-linecap="round" stroke-linejoin="round" stroke-width="2.000000"
	d="
M132.500000,177.500000 
	C137.649658,176.958237 137.647827,177.030869 138.572098,182.487793 
	C138.727921,183.407654 139.833328,184.166672 140.500000,185.000000 
"/>
<path fill="none" opacity="1.000000" stroke="#000000" stroke-linecap="round" stroke-linejoin="round" stroke-width="2.000000"
	d="
M712.500000,175.000000 
	C710.833313,175.793533 709.166687,175.793533 707.500000,175.000000 
"/>
<path fill="none" opacity="1.000000" stroke="#000000" stroke-linecap="round" stroke-linejoin="round" stroke-width="2.000000"
	d="
M411.500000,174.500000 
	C409.500977,176.531448 406.129822,176.941284 405.000000,180.000000 
"/>
<path fill="none" opacity="1.000000" stroke="#000000" stroke-linecap="round" stroke-linejoin="round" stroke-width="2.000000"
	d="
M683.000000,175.500000 
	C683.793518,177.166672 683.793518,178.833328 683.000000,180.500000 
"/>
<path fill="none" opacity="1.000000" stroke="#000000" stroke-linecap="round" stroke-linejoin="round" stroke-width="2.000000"
	d="
M713.000000,167.500000 
	C712.206482,169.166672 712.206482,170.833328 713.000000,172.500000 
"/>
<path fill="none" opacity="1.000000" stroke="#000000" stroke-linecap="round" stroke-linejoin="round" stroke-width="2.000000"
	d="
M683.000000,140.500000 
	C683.793518,142.166672 683.793518,143.833328 683.000000,145.500000 
"/>
<path fill="none" opacity="1.000000" stroke="#000000" stroke-linecap="round" stroke-linejoin="round" stroke-width="2.000000"
	d="
M627.500000,195.000000 
	C625.833313,195.793533 624.166687,195.793533 622.500000,195.000000 
"/>
<path fill="none" opacity="1.000000" stroke="#000000" stroke-linecap="round" stroke-linejoin="round" stroke-width="2.000000"
	d="
M388.000000,137.500000 
	C387.206482,139.166672 387.206482,140.833328 388.000000,142.500000 
"/>
<path fill="none" opacity="1.000000" stroke="#000000" stroke-linecap="round" stroke-linejoin="round" stroke-width="2.000000"
	d="
M683.000000,147.500000 
	C683.793518,149.166672 683.793518,150.833328 683.000000,152.500000 
"/>
<path fill="none" opacity="1.000000" stroke="#000000" stroke-linecap="round" stroke-linejoin="round" stroke-width="2.000000"
	d="
M683.000000,168.500000 
	C683.793518,170.166672 683.793518,171.833328 683.000000,173.500000 
"/>
<path fill="none" opacity="1.000000" stroke="#000000" stroke-linecap="round" stroke-linejoin="round" stroke-width="2.000000"
	d="
M363.500000,185.500000 
	C365.166656,187.121078 366.833344,186.544754 368.500000,185.500000 
"/>
<path fill="none" opacity="1.000000" stroke="#000000" stroke-linecap="round" stroke-linejoin="round" stroke-width="2.000000"
	d="
M388.000000,130.500000 
	C387.206482,132.166672 387.206482,133.833328 388.000000,135.500000 
"/>
<path fill="none" opacity="1.000000" stroke="#000000" stroke-linecap="round" stroke-linejoin="round" stroke-width="3.000000"
	d="
M259.500000,189.000000 
	C254.835571,189.229462 250.138443,188.542908 245.500000,189.500000 
"/>
<path fill="none" opacity="1.000000" stroke="#000000" stroke-linecap="round" stroke-linejoin="round" stroke-width="2.000000"
	d="
M700.000000,187.500000 
	C700.847961,185.163010 700.846741,183.038315 698.500000,181.500000 
"/>
<path fill="none" opacity="1.000000" stroke="#000000" stroke-linecap="round" stroke-linejoin="round" stroke-width="2.000000"
	d="
M501.500000,183.500000 
	C500.482880,187.289429 503.115051,190.747116 502.500000,194.500000 
"/>
<path fill="none" opacity="1.000000" stroke="#000000" stroke-linecap="round" stroke-linejoin="round" stroke-width="4.000000"
	d="
M383.500000,185.500000 
	C385.416321,188.194565 386.883240,191.038925 386.500000,194.500000 
"/>
<path fill="none" opacity="1.000000" stroke="#000000" stroke-linecap="round" stroke-linejoin="round" stroke-width="2.000000"
	d="
M408.500000,183.500000 
	C408.500000,187.333328 408.500000,191.166672 408.500000,195.000000 
"/>
<path fill="none" opacity="1.000000" stroke="#000000" stroke-linecap="round" stroke-linejoin="round" stroke-width="2.000000"
	d="
M656.500000,175.500000 
	C658.821777,177.276489 658.341125,178.759811 655.996521,179.993362 
	C654.347778,180.860840 652.666687,181.666656 651.000000,182.499985 
"/>
<path fill="none" opacity="1.000000" stroke="#000000" stroke-linecap="round" stroke-linejoin="round" stroke-width="2.000000"
	d="
M61.500000,183.500000 
	C58.981964,183.780396 59.959961,186.245804 59.000000,187.500000 
"/>
<path fill="none" opacity="1.000000" stroke="#000000" stroke-linecap="round" stroke-linejoin="round" stroke-width="2.000000"
	d="
M585.999939,123.999992 
	C585.666626,125.499992 585.333313,126.999992 584.999939,128.499985 
"/>
<path fill="none" opacity="1.000000" stroke="#000000" stroke-linecap="round" stroke-linejoin="round" stroke-width="2.000000"
	d="
M392.500000,173.500000 
	C390.500000,173.333328 388.304901,173.626862 386.549713,172.882751 
	C384.387939,171.966278 384.154846,173.309677 383.500000,174.500000 
"/>
<path fill="none" opacity="1.000000" stroke="#000000" stroke-linecap="round" stroke-linejoin="round" stroke-width="3.000000"
	d="
M723.500061,183.500000 
	C723.666687,187.166672 723.833374,190.833328 724.000061,194.500000 
"/>
<path fill="none" opacity="1.000000" stroke="#000000" stroke-linecap="round" stroke-linejoin="round" stroke-width="2.000000"
	d="
M275.500000,172.000015 
	C274.166656,172.666672 272.833344,173.333344 271.500000,174.000015 
"/>
<path fill="none" opacity="1.000000" stroke="#000000" stroke-linecap="round" stroke-linejoin="round" stroke-width="2.000000"
	d="
M656.000000,180.500000 
	C657.067566,182.768982 656.101746,185.183212 656.500000,187.500000 
"/>
<path fill="none" opacity="1.000000" stroke="#000000" stroke-linecap="round" stroke-linejoin="round" stroke-width="2.000000"
	d="
M771.500000,187.500000 
	C771.010193,189.351135 769.667175,189.709183 768.000000,189.500000 
"/>
<path fill="none" opacity="1.000000" stroke="#000000" stroke-linecap="round" stroke-linejoin="round" stroke-width="2.000000"
	d="
M390.000000,186.000000 
	C388.003967,186.312927 388.629730,188.873093 387.000000,189.500000 
"/>
<path fill="none" opacity="1.000000" stroke="#000000" stroke-linecap="round" stroke-linejoin="round" stroke-width="3.000000"
	d="
M521.500000,182.000000 
	C520.038330,184.159698 521.136353,186.052643 522.584412,187.409943 
	C523.448914,188.220245 524.216125,186.582474 525.000000,186.000000 
"/>
<path fill="none" opacity="1.000000" stroke="#000000" stroke-linecap="round" stroke-linejoin="round" stroke-width="2.000000"
	d="
M497.500000,175.000000 
	C500.461700,177.117737 497.173248,178.667267 497.000000,180.500000 
"/>
<path fill="none" opacity="1.000000" stroke="#000000" stroke-linecap="round" stroke-linejoin="round" stroke-width="2.000000"
	d="
M85.500000,176.500000 
	C86.000000,177.833328 86.500000,179.166672 87.000000,180.500000 
"/>
<path fill="none" opacity="1.000000" stroke="#000000" stroke-linecap="round" stroke-linejoin="round" stroke-width="5.000000"
	d="
M274.000000,182.000000 
	C274.843933,185.802505 276.601715,189.446075 276.000000,193.500000 
"/>
<path fill="none" opacity="1.000000" stroke="#000000" stroke-linecap="round" stroke-linejoin="round" stroke-width="2.000000"
	d="
M276.000000,148.500000 
	C275.269592,150.833328 275.269592,153.166672 276.000000,155.500000 
"/>
<path fill="none" opacity="1.000000" stroke="#000000" stroke-linecap="round" stroke-linejoin="round" stroke-width="2.000000"
	d="
M520.500000,185.500015 
	C518.500000,186.333344 516.500000,187.166687 514.500000,188.000015 
"/>
<path fill="none" opacity="1.000000" stroke="#000000" stroke-linecap="round" stroke-linejoin="round" stroke-width="2.000000"
	d="
M348.500000,50.500000 
	C348.383575,53.993866 350.480347,52.323666 352.000000,52.000000 
"/>
<path fill="none" opacity="1.000000" stroke="#000000" stroke-linecap="round" stroke-linejoin="round" stroke-width="2.000000"
	d="
M349.500000,185.500000 
	C349.796631,187.441635 349.140228,188.588486 347.000000,188.500229 
	C345.724335,188.447617 344.811188,189.122391 344.000000,190.000000 
"/>
<path fill="none" opacity="1.000000" stroke="#000000" stroke-linecap="round" stroke-linejoin="round" stroke-width="2.000000"
	d="
M588.000000,170.500000 
	C587.269592,172.833328 587.269592,175.166672 588.000000,177.500000 
"/>
<path fill="none" opacity="1.000000" stroke="#000000" stroke-linecap="round" stroke-linejoin="round" stroke-width="2.000000"
	d="
M765.500000,177.500000 
	C766.144775,179.157288 764.163696,179.689209 764.000000,181.000000 
"/>
<path fill="none" opacity="1.000000" stroke="#000000" stroke-linecap="round" stroke-linejoin="round" stroke-width="2.000000"
	d="
M276.000000,139.500000 
	C275.269592,141.833328 275.269592,144.166672 276.000000,146.500000 
"/>
<path fill="none" opacity="1.000000" stroke="#000000" stroke-linecap="round" stroke-linejoin="round" stroke-width="3.000000"
	d="
M669.500000,183.500000 
	C669.309387,186.019028 672.458801,188.985260 668.495728,190.991516 
	C668.363037,191.058685 668.166687,191.000000 668.000000,191.000000 
"/>
<path fill="none" opacity="1.000000" stroke="#000000" stroke-linecap="round" stroke-linejoin="round" stroke-width="1.000000"
	d="
M79.000000,188.000000 
	C78.319092,187.071182 77.333023,187.668228 76.500000,187.500000 
"/>
<path fill="none" opacity="1.000000" stroke="#000000" stroke-linecap="round" stroke-linejoin="round" stroke-width="2.000000"
	d="
M350.000000,190.500000 
	C348.279083,191.486435 350.544952,193.469574 349.000000,194.500000 
"/>
<path fill="none" opacity="1.000000" stroke="#000000" stroke-linecap="round" stroke-linejoin="round" stroke-width="2.000000"
	d="
M222.500000,186.500000 
	C221.523727,189.116074 223.331207,191.906113 222.000000,194.500000 
"/>
<path fill="none" opacity="1.000000" stroke="#000000" stroke-linecap="round" stroke-linejoin="round" stroke-width="2.000000"
	d="
M216.500000,169.000000 
	C218.618317,169.960556 216.476929,172.341019 218.000000,173.500000 
"/>
<path fill="none" opacity="1.000000" stroke="#000000" stroke-linecap="round" stroke-linejoin="round" stroke-width="3.000000"
	d="
M362.500000,182.000000 
	C363.851898,184.338394 362.857025,186.036758 361.000000,187.500000 
"/>
<path fill="none" opacity="1.000000" stroke="#000000" stroke-linecap="round" stroke-linejoin="round" stroke-width="2.000000"
	d="
M260.500000,183.500000 
	C259.052277,185.035126 261.154724,186.126495 261.000000,187.500000 
"/>
<path fill="none" opacity="1.000000" stroke="#000000" stroke-linecap="round" stroke-linejoin="round" stroke-width="3.000000"
	d="
M221.500000,180.500000 
	C223.991577,181.934174 220.873398,183.929321 222.000000,185.500000 
"/>
<path fill="none" opacity="1.000000" stroke="#000000" stroke-linecap="round" stroke-linejoin="round" stroke-width="1.000000"
	d="
M163.500000,182.000000 
	C163.000000,181.666672 162.500000,181.333344 162.000000,181.000000 
"/>
<path fill="none" opacity="1.000000" stroke="#000000" stroke-linecap="round" stroke-linejoin="round" stroke-width="1.000000"
	d="
M77.999992,174.500000 
	C77.666656,175.000000 77.333328,175.500000 76.999992,176.000000 
"/>
<path fill="none" opacity="1.000000" stroke="#000000" stroke-linecap="round" stroke-linejoin="round" stroke-width="2.000000"
	d="
M385.500000,183.500000 
	C386.772064,184.872208 385.356384,185.860443 385.000000,187.000000 
"/>
</svg>